<svg xmlns="http://www.w3.org/2000/svg" viewBox="-35.1 -89.1 640.0 235.2" width="640" height="235" style="background:#0b1220">
<polyline points="0.0,0.0 0.0,58.4" fill="none" stroke="#38bdf8" stroke-width="2.92" stroke-linejoin="round" stroke-linecap="round"/>
<polyline points="525.8,70.1 525.8,128.5" fill="none" stroke="#38bdf8" stroke-width="2.92" stroke-linejoin="round" stroke-linecap="round"/>
<polyline points="525.8,-70.1 525.8,-11.7" fill="none" stroke="#38bdf8" stroke-width="2.92" stroke-linejoin="round" stroke-linecap="round"/>
<polygon points="233.7,1.5 234.1,1.5 234.4,1.5 234.8,1.5 235.2,1.5 235.5,1.5 235.9,1.5 236.3,1.6 236.6,1.6 237.0,1.6 237.4,1.7 237.7,1.7 238.1,1.7 238.5,1.8 238.8,1.8 239.2,1.9 239.5,1.9 239.9,1.9 240.3,2.0 240.6,2.0 241.0,2.1 241.4,2.1 241.7,2.1 242.1,2.2 242.5,2.2 242.8,2.2 243.2,2.3 243.6,2.3 243.9,2.3 244.3,2.3 244.7,2.3 245.0,2.3 245.4,2.3 245.4,-2.3 245.0,-2.3 244.7,-2.3 244.3,-2.3 243.9,-2.3 243.6,-2.3 243.2,-2.3 242.8,-2.2 242.5,-2.2 242.1,-2.2 241.7,-2.1 241.4,-2.1 241.0,-2.1 240.6,-2.0 240.3,-2.0 239.9,-1.9 239.5,-1.9 239.2,-1.9 238.8,-1.8 238.5,-1.8 238.1,-1.7 237.7,-1.7 237.4,-1.7 237.0,-1.6 236.6,-1.6 236.3,-1.6 235.9,-1.5 235.5,-1.5 235.2,-1.5 234.8,-1.5 234.4,-1.5 234.1,-1.5 233.7,-1.5" fill="#0e7490" fill-opacity="0.55" stroke="#22d3ee" stroke-width="0.5"/>
<polyline points="245.4,0.0 291.4,8.1" fill="none" stroke="#38bdf8" stroke-width="2.92" stroke-linejoin="round" stroke-linecap="round"/>
<polyline points="245.4,0.0 291.4,-8.1" fill="none" stroke="#38bdf8" stroke-width="2.92" stroke-linejoin="round" stroke-linecap="round"/>
<polyline points="-17.5,0.0 0.0,0.0" fill="none" stroke="#38bdf8" stroke-width="2.92" stroke-linejoin="round" stroke-linecap="round"/>
<polygon points="0.0,-1.5 2.0,-1.5 2.0,1.5 0.0,1.5" fill="#0e7490" fill-opacity="0.55" stroke="#22d3ee" stroke-width="0.5"/>
<polygon points="4.0,-1.5 6.0,-1.5 6.0,1.5 4.0,1.5" fill="#0e7490" fill-opacity="0.55" stroke="#22d3ee" stroke-width="0.5"/>
<polygon points="7.9,-1.5 9.9,-1.5 9.9,1.5 7.9,1.5" fill="#0e7490" fill-opacity="0.55" stroke="#22d3ee" stroke-width="0.5"/>
<polygon points="11.9,-1.5 13.9,-1.5 13.9,1.5 11.9,1.5" fill="#0e7490" fill-opacity="0.55" stroke="#22d3ee" stroke-width="0.5"/>
<polygon points="15.9,-1.5 17.9,-1.5 17.9,1.5 15.9,1.5" fill="#0e7490" fill-opacity="0.55" stroke="#22d3ee" stroke-width="0.5"/>
<polygon points="19.9,-1.5 21.9,-1.5 21.9,1.5 19.9,1.5" fill="#0e7490" fill-opacity="0.55" stroke="#22d3ee" stroke-width="0.5"/>
<polygon points="23.8,-1.5 25.8,-1.5 25.8,1.5 23.8,1.5" fill="#0e7490" fill-opacity="0.55" stroke="#22d3ee" stroke-width="0.5"/>
<polygon points="27.8,-1.5 29.8,-1.5 29.8,1.5 27.8,1.5" fill="#0e7490" fill-opacity="0.55" stroke="#22d3ee" stroke-width="0.5"/>
<polygon points="31.8,-1.5 33.8,-1.5 33.8,1.5 31.8,1.5" fill="#0e7490" fill-opacity="0.55" stroke="#22d3ee" stroke-width="0.5"/>
<polygon points="35.8,-1.5 37.7,-1.5 37.7,1.5 35.8,1.5" fill="#0e7490" fill-opacity="0.55" stroke="#22d3ee" stroke-width="0.5"/>
<polygon points="39.7,-1.5 41.7,-1.5 41.7,1.5 39.7,1.5" fill="#0e7490" fill-opacity="0.55" stroke="#22d3ee" stroke-width="0.5"/>
<polygon points="43.7,-1.5 45.7,-1.5 45.7,1.5 43.7,1.5" fill="#0e7490" fill-opacity="0.55" stroke="#22d3ee" stroke-width="0.5"/>
<polygon points="47.7,-1.5 49.7,-1.5 49.7,1.5 47.7,1.5" fill="#0e7490" fill-opacity="0.55" stroke="#22d3ee" stroke-width="0.5"/>
<polygon points="51.6,-1.5 53.6,-1.5 53.6,1.5 51.6,1.5" fill="#0e7490" fill-opacity="0.55" stroke="#22d3ee" stroke-width="0.5"/>
<polygon points="55.6,-1.5 57.6,-1.5 57.6,1.5 55.6,1.5" fill="#0e7490" fill-opacity="0.55" stroke="#22d3ee" stroke-width="0.5"/>
<polygon points="59.6,-1.5 61.6,-1.5 61.6,1.5 59.6,1.5" fill="#0e7490" fill-opacity="0.55" stroke="#22d3ee" stroke-width="0.5"/>
<polyline points="508.3,70.1 525.8,70.1" fill="none" stroke="#38bdf8" stroke-width="2.92" stroke-linejoin="round" stroke-linecap="round"/>
<polygon points="525.8,68.7 527.8,68.7 527.8,71.6 525.8,71.6" fill="#0e7490" fill-opacity="0.55" stroke="#22d3ee" stroke-width="0.5"/>
<polygon points="529.8,68.7 531.8,68.7 531.8,71.6 529.8,71.6" fill="#0e7490" fill-opacity="0.55" stroke="#22d3ee" stroke-width="0.5"/>
<polygon points="533.8,68.7 535.8,68.7 535.8,71.6 533.8,71.6" fill="#0e7490" fill-opacity="0.55" stroke="#22d3ee" stroke-width="0.5"/>
<polygon points="537.8,68.7 539.7,68.7 539.7,71.6 537.8,71.6" fill="#0e7490" fill-opacity="0.55" stroke="#22d3ee" stroke-width="0.5"/>
<polygon points="541.7,68.7 543.7,68.7 543.7,71.6 541.7,71.6" fill="#0e7490" fill-opacity="0.55" stroke="#22d3ee" stroke-width="0.5"/>
<polygon points="545.7,68.7 547.7,68.7 547.7,71.6 545.7,71.6" fill="#0e7490" fill-opacity="0.55" stroke="#22d3ee" stroke-width="0.5"/>
<polygon points="549.7,68.7 551.7,68.7 551.7,71.6 549.7,71.6" fill="#0e7490" fill-opacity="0.55" stroke="#22d3ee" stroke-width="0.5"/>
<polygon points="553.6,68.7 555.6,68.7 555.6,71.6 553.6,71.6" fill="#0e7490" fill-opacity="0.55" stroke="#22d3ee" stroke-width="0.5"/>
<polygon points="557.6,68.7 559.6,68.7 559.6,71.6 557.6,71.6" fill="#0e7490" fill-opacity="0.55" stroke="#22d3ee" stroke-width="0.5"/>
<polygon points="561.6,68.7 563.6,68.7 563.6,71.6 561.6,71.6" fill="#0e7490" fill-opacity="0.55" stroke="#22d3ee" stroke-width="0.5"/>
<polygon points="565.6,68.7 567.6,68.7 567.6,71.6 565.6,71.6" fill="#0e7490" fill-opacity="0.55" stroke="#22d3ee" stroke-width="0.5"/>
<polygon points="569.5,68.7 571.5,68.7 571.5,71.6 569.5,71.6" fill="#0e7490" fill-opacity="0.55" stroke="#22d3ee" stroke-width="0.5"/>
<polygon points="573.5,68.7 575.5,68.7 575.5,71.6 573.5,71.6" fill="#0e7490" fill-opacity="0.55" stroke="#22d3ee" stroke-width="0.5"/>
<polygon points="577.5,68.7 579.5,68.7 579.5,71.6 577.5,71.6" fill="#0e7490" fill-opacity="0.55" stroke="#22d3ee" stroke-width="0.5"/>
<polygon points="581.5,68.7 583.4,68.7 583.4,71.6 581.5,71.6" fill="#0e7490" fill-opacity="0.55" stroke="#22d3ee" stroke-width="0.5"/>
<polygon points="585.4,68.7 587.4,68.7 587.4,71.6 585.4,71.6" fill="#0e7490" fill-opacity="0.55" stroke="#22d3ee" stroke-width="0.5"/>
<polyline points="508.3,-70.1 525.8,-70.1" fill="none" stroke="#38bdf8" stroke-width="2.92" stroke-linejoin="round" stroke-linecap="round"/>
<polygon points="525.8,-71.6 527.8,-71.6 527.8,-68.7 525.8,-68.7" fill="#0e7490" fill-opacity="0.55" stroke="#22d3ee" stroke-width="0.5"/>
<polygon points="529.8,-71.6 531.8,-71.6 531.8,-68.7 529.8,-68.7" fill="#0e7490" fill-opacity="0.55" stroke="#22d3ee" stroke-width="0.5"/>
<polygon points="533.8,-71.6 535.8,-71.6 535.8,-68.7 533.8,-68.7" fill="#0e7490" fill-opacity="0.55" stroke="#22d3ee" stroke-width="0.5"/>
<polygon points="537.8,-71.6 539.7,-71.6 539.7,-68.7 537.8,-68.7" fill="#0e7490" fill-opacity="0.55" stroke="#22d3ee" stroke-width="0.5"/>
<polygon points="541.7,-71.6 543.7,-71.6 543.7,-68.7 541.7,-68.7" fill="#0e7490" fill-opacity="0.55" stroke="#22d3ee" stroke-width="0.5"/>
<polygon points="545.7,-71.6 547.7,-71.6 547.7,-68.7 545.7,-68.7" fill="#0e7490" fill-opacity="0.55" stroke="#22d3ee" stroke-width="0.5"/>
<polygon points="549.7,-71.6 551.7,-71.6 551.7,-68.7 549.7,-68.7" fill="#0e7490" fill-opacity="0.55" stroke="#22d3ee" stroke-width="0.5"/>
<polygon points="553.6,-71.6 555.6,-71.6 555.6,-68.7 553.6,-68.7" fill="#0e7490" fill-opacity="0.55" stroke="#22d3ee" stroke-width="0.5"/>
<polygon points="557.6,-71.6 559.6,-71.6 559.6,-68.7 557.6,-68.7" fill="#0e7490" fill-opacity="0.55" stroke="#22d3ee" stroke-width="0.5"/>
<polygon points="561.6,-71.6 563.6,-71.6 563.6,-68.7 561.6,-68.7" fill="#0e7490" fill-opacity="0.55" stroke="#22d3ee" stroke-width="0.5"/>
<polygon points="565.6,-71.6 567.6,-71.6 567.6,-68.7 565.6,-68.7" fill="#0e7490" fill-opacity="0.55" stroke="#22d3ee" stroke-width="0.5"/>
<polygon points="569.5,-71.6 571.5,-71.6 571.5,-68.7 569.5,-68.7" fill="#0e7490" fill-opacity="0.55" stroke="#22d3ee" stroke-width="0.5"/>
<polygon points="573.5,-71.6 575.5,-71.6 575.5,-68.7 573.5,-68.7" fill="#0e7490" fill-opacity="0.55" stroke="#22d3ee" stroke-width="0.5"/>
<polygon points="577.5,-71.6 579.5,-71.6 579.5,-68.7 577.5,-68.7" fill="#0e7490" fill-opacity="0.55" stroke="#22d3ee" stroke-width="0.5"/>
<polygon points="581.5,-71.6 583.4,-71.6 583.4,-68.7 581.5,-68.7" fill="#0e7490" fill-opacity="0.55" stroke="#22d3ee" stroke-width="0.5"/>
<polygon points="585.4,-71.6 587.4,-71.6 587.4,-68.7 585.4,-68.7" fill="#0e7490" fill-opacity="0.55" stroke="#22d3ee" stroke-width="0.5"/>
<polyline points="0.0,58.4 233.7,58.4 233.7,0.0" fill="none" stroke="#38bdf8" stroke-width="2.92" stroke-linejoin="round" stroke-linecap="round"/>
<polyline points="291.4,8.1 525.8,8.1 525.8,128.5" fill="none" stroke="#38bdf8" stroke-width="2.92" stroke-linejoin="round" stroke-linecap="round"/>
<polyline points="291.4,-8.1 525.8,-8.1 525.8,-11.7" fill="none" stroke="#38bdf8" stroke-width="2.92" stroke-linejoin="round" stroke-linecap="round"/>
<text x="-35.1" y="-77.4" fill="#94a3b8" font-size="11" font-family="monospace">C5 · 对称Y分支 1x2 分束器 (no gdsfactory)</text>
</svg>
