<svg width="680" height="680" style="background:#fff;border:1px solid #ddd;border-radius:6px"><polygon points="89.9,321.3 92.3,321.3 92.3,317.9 89.9,317.9" fill="#2563eb" fill-opacity="0.7"/><polygon points="92.5,321.3 94.9,321.3 94.9,317.9 92.5,317.9" fill="#2563eb" fill-opacity="0.7"/><polygon points="92.3,319.7 92.6,319.7 92.6,319.5 92.3,319.5" fill="#e11d48" fill-opacity="0.7"/><polyline points="89.9,319.6 84.8,319.6" fill="none" stroke="#2563eb" stroke-width="2.0"/><polyline points="94.9,319.6 100.0,319.6" fill="none" stroke="#2563eb" stroke-width="2.0"/><polygon points="160.6,362.1 163.1,362.1 163.1,358.7 160.6,358.7" fill="#2563eb" fill-opacity="0.7"/><polygon points="163.2,362.1 165.7,362.1 165.7,358.7 163.2,358.7" fill="#2563eb" fill-opacity="0.7"/><polygon points="163.0,360.5 163.3,360.5 163.3,360.3 163.0,360.3" fill="#e11d48" fill-opacity="0.7"/><polyline points="160.6,360.4 155.6,360.4" fill="none" stroke="#2563eb" stroke-width="2.0"/><polyline points="165.7,360.4 170.7,360.4" fill="none" stroke="#2563eb" stroke-width="2.0"/><polygon points="231.4,402.9 233.8,402.9 233.8,399.6 231.4,399.6" fill="#2563eb" fill-opacity="0.7"/><polygon points="234.0,402.9 236.4,402.9 236.4,399.6 234.0,399.6" fill="#2563eb" fill-opacity="0.7"/><polygon points="233.7,401.4 234.1,401.4 234.1,401.1 233.7,401.1" fill="#e11d48" fill-opacity="0.7"/><polyline points="231.4,401.3 226.3,401.3" fill="none" stroke="#2563eb" stroke-width="2.0"/><polyline points="236.4,401.3 241.5,401.3" fill="none" stroke="#2563eb" stroke-width="2.0"/><polygon points="302.1,443.8 304.5,443.8 304.5,440.4 302.1,440.4" fill="#2563eb" fill-opacity="0.7"/><polygon points="304.7,443.8 307.2,443.8 307.2,440.4 304.7,440.4" fill="#2563eb" fill-opacity="0.7"/><polygon points="304.5,442.2 304.8,442.2 304.8,442.0 304.5,442.0" fill="#e11d48" fill-opacity="0.7"/><polyline points="302.1,442.1 297.1,442.1" fill="none" stroke="#2563eb" stroke-width="2.0"/><polyline points="307.2,442.1 312.2,442.1" fill="none" stroke="#2563eb" stroke-width="2.0"/><polygon points="372.8,484.6 375.3,484.6 375.3,481.3 372.8,481.3" fill="#2563eb" fill-opacity="0.7"/><polygon points="375.5,484.6 377.9,484.6 377.9,481.3 375.5,481.3" fill="#2563eb" fill-opacity="0.7"/><polygon points="375.2,483.1 375.5,483.1 375.5,482.8 375.2,482.8" fill="#e11d48" fill-opacity="0.7"/><polyline points="372.8,482.9 367.8,482.9" fill="none" stroke="#2563eb" stroke-width="2.0"/><polyline points="377.9,482.9 382.9,482.9" fill="none" stroke="#2563eb" stroke-width="2.0"/><polygon points="160.6,280.4 163.1,280.4 163.1,277.1 160.6,277.1" fill="#2563eb" fill-opacity="0.7"/><polygon points="163.2,280.4 165.7,280.4 165.7,277.1 163.2,277.1" fill="#2563eb" fill-opacity="0.7"/><polygon points="163.0,278.9 163.3,278.9 163.3,278.6 163.0,278.6" fill="#e11d48" fill-opacity="0.7"/><polyline points="160.6,278.7 155.6,278.7" fill="none" stroke="#2563eb" stroke-width="2.0"/><polyline points="165.7,278.7 170.7,278.7" fill="none" stroke="#2563eb" stroke-width="2.0"/><polygon points="231.4,321.3 233.8,321.3 233.8,317.9 231.4,317.9" fill="#2563eb" fill-opacity="0.7"/><polygon points="234.0,321.3 236.4,321.3 236.4,317.9 234.0,317.9" fill="#2563eb" fill-opacity="0.7"/><polygon points="233.7,319.7 234.1,319.7 234.1,319.5 233.7,319.5" fill="#e11d48" fill-opacity="0.7"/><polyline points="231.4,319.6 226.3,319.6" fill="none" stroke="#2563eb" stroke-width="2.0"/><polyline points="236.4,319.6 241.5,319.6" fill="none" stroke="#2563eb" stroke-width="2.0"/><polygon points="302.1,362.1 304.5,362.1 304.5,358.7 302.1,358.7" fill="#2563eb" fill-opacity="0.7"/><polygon points="304.7,362.1 307.2,362.1 307.2,358.7 304.7,358.7" fill="#2563eb" fill-opacity="0.7"/><polygon points="304.5,360.5 304.8,360.5 304.8,360.3 304.5,360.3" fill="#e11d48" fill-opacity="0.7"/><polyline points="302.1,360.4 297.1,360.4" fill="none" stroke="#2563eb" stroke-width="2.0"/><polyline points="307.2,360.4 312.2,360.4" fill="none" stroke="#2563eb" stroke-width="2.0"/><polygon points="372.8,402.9 375.3,402.9 375.3,399.6 372.8,399.6" fill="#2563eb" fill-opacity="0.7"/><polygon points="375.5,402.9 377.9,402.9 377.9,399.6 375.5,399.6" fill="#2563eb" fill-opacity="0.7"/><polygon points="375.2,401.4 375.5,401.4 375.5,401.1 375.2,401.1" fill="#e11d48" fill-opacity="0.7"/><polyline points="372.8,401.3 367.8,401.3" fill="none" stroke="#2563eb" stroke-width="2.0"/><polyline points="377.9,401.3 382.9,401.3" fill="none" stroke="#2563eb" stroke-width="2.0"/><polygon points="443.6,443.8 446.0,443.8 446.0,440.4 443.6,440.4" fill="#2563eb" fill-opacity="0.7"/><polygon points="446.2,443.8 448.6,443.8 448.6,440.4 446.2,440.4" fill="#2563eb" fill-opacity="0.7"/><polygon points="445.9,442.2 446.3,442.2 446.3,442.0 445.9,442.0" fill="#e11d48" fill-opacity="0.7"/><polyline points="443.6,442.1 438.5,442.1" fill="none" stroke="#2563eb" stroke-width="2.0"/><polyline points="448.6,442.1 453.7,442.1" fill="none" stroke="#2563eb" stroke-width="2.0"/><polygon points="231.4,239.6 233.8,239.6 233.8,236.2 231.4,236.2" fill="#2563eb" fill-opacity="0.7"/><polygon points="234.0,239.6 236.4,239.6 236.4,236.2 234.0,236.2" fill="#2563eb" fill-opacity="0.7"/><polygon points="233.7,238.0 234.1,238.0 234.1,237.8 233.7,237.8" fill="#e11d48" fill-opacity="0.7"/><polyline points="231.4,237.9 226.3,237.9" fill="none" stroke="#2563eb" stroke-width="2.0"/><polyline points="236.4,237.9 241.5,237.9" fill="none" stroke="#2563eb" stroke-width="2.0"/><polygon points="302.1,280.4 304.5,280.4 304.5,277.1 302.1,277.1" fill="#2563eb" fill-opacity="0.7"/><polygon points="304.7,280.4 307.2,280.4 307.2,277.1 304.7,277.1" fill="#2563eb" fill-opacity="0.7"/><polygon points="304.5,278.9 304.8,278.9 304.8,278.6 304.5,278.6" fill="#e11d48" fill-opacity="0.7"/><polyline points="302.1,278.7 297.1,278.7" fill="none" stroke="#2563eb" stroke-width="2.0"/><polyline points="307.2,278.7 312.2,278.7" fill="none" stroke="#2563eb" stroke-width="2.0"/><polygon points="372.8,321.3 375.3,321.3 375.3,317.9 372.8,317.9" fill="#2563eb" fill-opacity="0.7"/><polygon points="375.5,321.3 377.9,321.3 377.9,317.9 375.5,317.9" fill="#2563eb" fill-opacity="0.7"/><polygon points="375.2,319.7 375.5,319.7 375.5,319.5 375.2,319.5" fill="#e11d48" fill-opacity="0.7"/><polyline points="372.8,319.6 367.8,319.6" fill="none" stroke="#2563eb" stroke-width="2.0"/><polyline points="377.9,319.6 382.9,319.6" fill="none" stroke="#2563eb" stroke-width="2.0"/><polygon points="443.6,362.1 446.0,362.1 446.0,358.7 443.6,358.7" fill="#2563eb" fill-opacity="0.7"/><polygon points="446.2,362.1 448.6,362.1 448.6,358.7 446.2,358.7" fill="#2563eb" fill-opacity="0.7"/><polygon points="445.9,360.5 446.3,360.5 446.3,360.3 445.9,360.3" fill="#e11d48" fill-opacity="0.7"/><polyline points="443.6,360.4 438.5,360.4" fill="none" stroke="#2563eb" stroke-width="2.0"/><polyline points="448.6,360.4 453.7,360.4" fill="none" stroke="#2563eb" stroke-width="2.0"/><polygon points="514.3,402.9 516.8,402.9 516.8,399.6 514.3,399.6" fill="#2563eb" fill-opacity="0.7"/><polygon points="516.9,402.9 519.4,402.9 519.4,399.6 516.9,399.6" fill="#2563eb" fill-opacity="0.7"/><polygon points="516.7,401.4 517.0,401.4 517.0,401.1 516.7,401.1" fill="#e11d48" fill-opacity="0.7"/><polyline points="514.3,401.3 509.3,401.3" fill="none" stroke="#2563eb" stroke-width="2.0"/><polyline points="519.4,401.3 524.4,401.3" fill="none" stroke="#2563eb" stroke-width="2.0"/><polygon points="302.1,198.7 304.5,198.7 304.5,195.4 302.1,195.4" fill="#2563eb" fill-opacity="0.7"/><polygon points="304.7,198.7 307.2,198.7 307.2,195.4 304.7,195.4" fill="#2563eb" fill-opacity="0.7"/><polygon points="304.5,197.2 304.8,197.2 304.8,196.9 304.5,196.9" fill="#e11d48" fill-opacity="0.7"/><polyline points="302.1,197.1 297.1,197.1" fill="none" stroke="#2563eb" stroke-width="2.0"/><polyline points="307.2,197.1 312.2,197.1" fill="none" stroke="#2563eb" stroke-width="2.0"/><polygon points="372.8,239.6 375.3,239.6 375.3,236.2 372.8,236.2" fill="#2563eb" fill-opacity="0.7"/><polygon points="375.5,239.6 377.9,239.6 377.9,236.2 375.5,236.2" fill="#2563eb" fill-opacity="0.7"/><polygon points="375.2,238.0 375.5,238.0 375.5,237.8 375.2,237.8" fill="#e11d48" fill-opacity="0.7"/><polyline points="372.8,237.9 367.8,237.9" fill="none" stroke="#2563eb" stroke-width="2.0"/><polyline points="377.9,237.9 382.9,237.9" fill="none" stroke="#2563eb" stroke-width="2.0"/><polygon points="443.6,280.4 446.0,280.4 446.0,277.1 443.6,277.1" fill="#2563eb" fill-opacity="0.7"/><polygon points="446.2,280.4 448.6,280.4 448.6,277.1 446.2,277.1" fill="#2563eb" fill-opacity="0.7"/><polygon points="445.9,278.9 446.3,278.9 446.3,278.6 445.9,278.6" fill="#e11d48" fill-opacity="0.7"/><polyline points="443.6,278.7 438.5,278.7" fill="none" stroke="#2563eb" stroke-width="2.0"/><polyline points="448.6,278.7 453.7,278.7" fill="none" stroke="#2563eb" stroke-width="2.0"/><polygon points="514.3,321.3 516.8,321.3 516.8,317.9 514.3,317.9" fill="#2563eb" fill-opacity="0.7"/><polygon points="516.9,321.3 519.4,321.3 519.4,317.9 516.9,317.9" fill="#2563eb" fill-opacity="0.7"/><polygon points="516.7,319.7 517.0,319.7 517.0,319.5 516.7,319.5" fill="#e11d48" fill-opacity="0.7"/><polyline points="514.3,319.6 509.3,319.6" fill="none" stroke="#2563eb" stroke-width="2.0"/><polyline points="519.4,319.6 524.4,319.6" fill="none" stroke="#2563eb" stroke-width="2.0"/><polygon points="585.1,362.1 587.5,362.1 587.5,358.7 585.1,358.7" fill="#2563eb" fill-opacity="0.7"/><polygon points="587.7,362.1 590.1,362.1 590.1,358.7 587.7,358.7" fill="#2563eb" fill-opacity="0.7"/><polygon points="587.4,360.5 587.7,360.5 587.7,360.3 587.4,360.3" fill="#e11d48" fill-opacity="0.7"/><polyline points="585.1,360.4 580.0,360.4" fill="none" stroke="#2563eb" stroke-width="2.0"/><polyline points="590.1,360.4 595.2,360.4" fill="none" stroke="#2563eb" stroke-width="2.0"/><polygon points="137.1,321.3 139.5,321.3 139.5,317.9 137.1,317.9" fill="#2563eb" fill-opacity="0.7"/><polygon points="139.7,321.3 142.1,321.3 142.1,317.9 139.7,317.9" fill="#2563eb" fill-opacity="0.7"/><polygon points="139.4,319.7 139.7,319.7 139.7,319.5 139.4,319.5" fill="#e11d48" fill-opacity="0.7"/><polyline points="137.1,319.6 132.0,319.6" fill="none" stroke="#2563eb" stroke-width="2.0"/><polyline points="142.1,319.6 147.2,319.6" fill="none" stroke="#2563eb" stroke-width="2.0"/><polygon points="207.8,362.1 210.2,362.1 210.2,358.7 207.8,358.7" fill="#2563eb" fill-opacity="0.7"/><polygon points="210.4,362.1 212.8,362.1 212.8,358.7 210.4,358.7" fill="#2563eb" fill-opacity="0.7"/><polygon points="210.1,360.5 210.5,360.5 210.5,360.3 210.1,360.3" fill="#e11d48" fill-opacity="0.7"/><polyline points="207.8,360.4 202.7,360.4" fill="none" stroke="#2563eb" stroke-width="2.0"/><polyline points="212.8,360.4 217.9,360.4" fill="none" stroke="#2563eb" stroke-width="2.0"/><polygon points="278.5,402.9 281.0,402.9 281.0,399.6 278.5,399.6" fill="#2563eb" fill-opacity="0.7"/><polygon points="281.1,402.9 283.6,402.9 283.6,399.6 281.1,399.6" fill="#2563eb" fill-opacity="0.7"/><polygon points="280.9,401.4 281.2,401.4 281.2,401.1 280.9,401.1" fill="#e11d48" fill-opacity="0.7"/><polyline points="278.5,401.3 273.5,401.3" fill="none" stroke="#2563eb" stroke-width="2.0"/><polyline points="283.6,401.3 288.6,401.3" fill="none" stroke="#2563eb" stroke-width="2.0"/><polygon points="349.3,443.8 351.7,443.8 351.7,440.4 349.3,440.4" fill="#2563eb" fill-opacity="0.7"/><polygon points="351.9,443.8 354.3,443.8 354.3,440.4 351.9,440.4" fill="#2563eb" fill-opacity="0.7"/><polygon points="351.6,442.2 352.0,442.2 352.0,442.0 351.6,442.0" fill="#e11d48" fill-opacity="0.7"/><polyline points="349.3,442.1 344.2,442.1" fill="none" stroke="#2563eb" stroke-width="2.0"/><polyline points="354.3,442.1 359.4,442.1" fill="none" stroke="#2563eb" stroke-width="2.0"/><polygon points="420.0,484.6 422.4,484.6 422.4,481.3 420.0,481.3" fill="#2563eb" fill-opacity="0.7"/><polygon points="422.6,484.6 425.1,484.6 425.1,481.3 422.6,481.3" fill="#2563eb" fill-opacity="0.7"/><polygon points="422.4,483.1 422.7,483.1 422.7,482.8 422.4,482.8" fill="#e11d48" fill-opacity="0.7"/><polyline points="420.0,482.9 414.9,482.9" fill="none" stroke="#2563eb" stroke-width="2.0"/><polyline points="425.1,482.9 430.1,482.9" fill="none" stroke="#2563eb" stroke-width="2.0"/><polygon points="207.8,280.4 210.2,280.4 210.2,277.1 207.8,277.1" fill="#2563eb" fill-opacity="0.7"/><polygon points="210.4,280.4 212.8,280.4 212.8,277.1 210.4,277.1" fill="#2563eb" fill-opacity="0.7"/><polygon points="210.1,278.9 210.5,278.9 210.5,278.6 210.1,278.6" fill="#e11d48" fill-opacity="0.7"/><polyline points="207.8,278.7 202.7,278.7" fill="none" stroke="#2563eb" stroke-width="2.0"/><polyline points="212.8,278.7 217.9,278.7" fill="none" stroke="#2563eb" stroke-width="2.0"/><polygon points="278.5,321.3 281.0,321.3 281.0,317.9 278.5,317.9" fill="#2563eb" fill-opacity="0.7"/><polygon points="281.1,321.3 283.6,321.3 283.6,317.9 281.1,317.9" fill="#2563eb" fill-opacity="0.7"/><polygon points="280.9,319.7 281.2,319.7 281.2,319.5 280.9,319.5" fill="#e11d48" fill-opacity="0.7"/><polyline points="278.5,319.6 273.5,319.6" fill="none" stroke="#2563eb" stroke-width="2.0"/><polyline points="283.6,319.6 288.6,319.6" fill="none" stroke="#2563eb" stroke-width="2.0"/><polygon points="349.3,362.1 351.7,362.1 351.7,358.7 349.3,358.7" fill="#2563eb" fill-opacity="0.7"/><polygon points="351.9,362.1 354.3,362.1 354.3,358.7 351.9,358.7" fill="#2563eb" fill-opacity="0.7"/><polygon points="351.6,360.5 352.0,360.5 352.0,360.3 351.6,360.3" fill="#e11d48" fill-opacity="0.7"/><polyline points="349.3,360.4 344.2,360.4" fill="none" stroke="#2563eb" stroke-width="2.0"/><polyline points="354.3,360.4 359.4,360.4" fill="none" stroke="#2563eb" stroke-width="2.0"/><polygon points="420.0,402.9 422.4,402.9 422.4,399.6 420.0,399.6" fill="#2563eb" fill-opacity="0.7"/><polygon points="422.6,402.9 425.1,402.9 425.1,399.6 422.6,399.6" fill="#2563eb" fill-opacity="0.7"/><polygon points="422.4,401.4 422.7,401.4 422.7,401.1 422.4,401.1" fill="#e11d48" fill-opacity="0.7"/><polyline points="420.0,401.3 414.9,401.3" fill="none" stroke="#2563eb" stroke-width="2.0"/><polyline points="425.1,401.3 430.1,401.3" fill="none" stroke="#2563eb" stroke-width="2.0"/><polygon points="490.7,443.8 493.2,443.8 493.2,440.4 490.7,440.4" fill="#2563eb" fill-opacity="0.7"/><polygon points="493.3,443.8 495.8,443.8 495.8,440.4 493.3,440.4" fill="#2563eb" fill-opacity="0.7"/><polygon points="493.1,442.2 493.4,442.2 493.4,442.0 493.1,442.0" fill="#e11d48" fill-opacity="0.7"/><polyline points="490.7,442.1 485.7,442.1" fill="none" stroke="#2563eb" stroke-width="2.0"/><polyline points="495.8,442.1 500.8,442.1" fill="none" stroke="#2563eb" stroke-width="2.0"/><polygon points="278.5,239.6 281.0,239.6 281.0,236.2 278.5,236.2" fill="#2563eb" fill-opacity="0.7"/><polygon points="281.1,239.6 283.6,239.6 283.6,236.2 281.1,236.2" fill="#2563eb" fill-opacity="0.7"/><polygon points="280.9,238.0 281.2,238.0 281.2,237.8 280.9,237.8" fill="#e11d48" fill-opacity="0.7"/><polyline points="278.5,237.9 273.5,237.9" fill="none" stroke="#2563eb" stroke-width="2.0"/><polyline points="283.6,237.9 288.6,237.9" fill="none" stroke="#2563eb" stroke-width="2.0"/><polygon points="349.3,280.4 351.7,280.4 351.7,277.1 349.3,277.1" fill="#2563eb" fill-opacity="0.7"/><polygon points="351.9,280.4 354.3,280.4 354.3,277.1 351.9,277.1" fill="#2563eb" fill-opacity="0.7"/><polygon points="351.6,278.9 352.0,278.9 352.0,278.6 351.6,278.6" fill="#e11d48" fill-opacity="0.7"/><polyline points="349.3,278.7 344.2,278.7" fill="none" stroke="#2563eb" stroke-width="2.0"/><polyline points="354.3,278.7 359.4,278.7" fill="none" stroke="#2563eb" stroke-width="2.0"/><polygon points="420.0,321.3 422.4,321.3 422.4,317.9 420.0,317.9" fill="#2563eb" fill-opacity="0.7"/><polygon points="422.6,321.3 425.1,321.3 425.1,317.9 422.6,317.9" fill="#2563eb" fill-opacity="0.7"/><polygon points="422.4,319.7 422.7,319.7 422.7,319.5 422.4,319.5" fill="#e11d48" fill-opacity="0.7"/><polyline points="420.0,319.6 414.9,319.6" fill="none" stroke="#2563eb" stroke-width="2.0"/><polyline points="425.1,319.6 430.1,319.6" fill="none" stroke="#2563eb" stroke-width="2.0"/><polygon points="490.7,362.1 493.2,362.1 493.2,358.7 490.7,358.7" fill="#2563eb" fill-opacity="0.7"/><polygon points="493.3,362.1 495.8,362.1 495.8,358.7 493.3,358.7" fill="#2563eb" fill-opacity="0.7"/><polygon points="493.1,360.5 493.4,360.5 493.4,360.3 493.1,360.3" fill="#e11d48" fill-opacity="0.7"/><polyline points="490.7,360.4 485.7,360.4" fill="none" stroke="#2563eb" stroke-width="2.0"/><polyline points="495.8,360.4 500.8,360.4" fill="none" stroke="#2563eb" stroke-width="2.0"/><polygon points="561.5,402.9 563.9,402.9 563.9,399.6 561.5,399.6" fill="#2563eb" fill-opacity="0.7"/><polygon points="564.1,402.9 566.5,402.9 566.5,399.6 564.1,399.6" fill="#2563eb" fill-opacity="0.7"/><polygon points="563.8,401.4 564.2,401.4 564.2,401.1 563.8,401.1" fill="#e11d48" fill-opacity="0.7"/><polyline points="561.5,401.3 556.4,401.3" fill="none" stroke="#2563eb" stroke-width="2.0"/><polyline points="566.5,401.3 571.6,401.3" fill="none" stroke="#2563eb" stroke-width="2.0"/><polygon points="349.3,198.7 351.7,198.7 351.7,195.4 349.3,195.4" fill="#2563eb" fill-opacity="0.7"/><polygon points="351.9,198.7 354.3,198.7 354.3,195.4 351.9,195.4" fill="#2563eb" fill-opacity="0.7"/><polygon points="351.6,197.2 352.0,197.2 352.0,196.9 351.6,196.9" fill="#e11d48" fill-opacity="0.7"/><polyline points="349.3,197.1 344.2,197.1" fill="none" stroke="#2563eb" stroke-width="2.0"/><polyline points="354.3,197.1 359.4,197.1" fill="none" stroke="#2563eb" stroke-width="2.0"/><polygon points="420.0,239.6 422.4,239.6 422.4,236.2 420.0,236.2" fill="#2563eb" fill-opacity="0.7"/><polygon points="422.6,239.6 425.1,239.6 425.1,236.2 422.6,236.2" fill="#2563eb" fill-opacity="0.7"/><polygon points="422.4,238.0 422.7,238.0 422.7,237.8 422.4,237.8" fill="#e11d48" fill-opacity="0.7"/><polyline points="420.0,237.9 414.9,237.9" fill="none" stroke="#2563eb" stroke-width="2.0"/><polyline points="425.1,237.9 430.1,237.9" fill="none" stroke="#2563eb" stroke-width="2.0"/><polygon points="490.7,280.4 493.2,280.4 493.2,277.1 490.7,277.1" fill="#2563eb" fill-opacity="0.7"/><polygon points="493.3,280.4 495.8,280.4 495.8,277.1 493.3,277.1" fill="#2563eb" fill-opacity="0.7"/><polygon points="493.1,278.9 493.4,278.9 493.4,278.6 493.1,278.6" fill="#e11d48" fill-opacity="0.7"/><polyline points="490.7,278.7 485.7,278.7" fill="none" stroke="#2563eb" stroke-width="2.0"/><polyline points="495.8,278.7 500.8,278.7" fill="none" stroke="#2563eb" stroke-width="2.0"/><polygon points="561.5,321.3 563.9,321.3 563.9,317.9 561.5,317.9" fill="#2563eb" fill-opacity="0.7"/><polygon points="564.1,321.3 566.5,321.3 566.5,317.9 564.1,317.9" fill="#2563eb" fill-opacity="0.7"/><polygon points="563.8,319.7 564.2,319.7 564.2,319.5 563.8,319.5" fill="#e11d48" fill-opacity="0.7"/><polyline points="561.5,319.6 556.4,319.6" fill="none" stroke="#2563eb" stroke-width="2.0"/><polyline points="566.5,319.6 571.6,319.6" fill="none" stroke="#2563eb" stroke-width="2.0"/><polygon points="632.2,362.1 634.7,362.1 634.7,358.7 632.2,358.7" fill="#2563eb" fill-opacity="0.7"/><polygon points="634.8,362.1 637.3,362.1 637.3,358.7 634.8,358.7" fill="#2563eb" fill-opacity="0.7"/><polygon points="634.6,360.5 634.9,360.5 634.9,360.3 634.6,360.3" fill="#e11d48" fill-opacity="0.7"/><polyline points="632.2,360.4 627.2,360.4" fill="none" stroke="#2563eb" stroke-width="2.0"/><polyline points="637.3,360.4 642.3,360.4" fill="none" stroke="#2563eb" stroke-width="2.0"/><polygon points="113.5,321.3 115.9,321.3 115.9,317.9 113.5,317.9" fill="#2563eb" fill-opacity="0.7"/><polygon points="116.1,321.3 118.5,321.3 118.5,317.9 116.1,317.9" fill="#2563eb" fill-opacity="0.7"/><polygon points="115.8,319.7 116.2,319.7 116.2,319.5 115.8,319.5" fill="#e11d48" fill-opacity="0.7"/><polyline points="113.5,319.6 108.4,319.6" fill="none" stroke="#2563eb" stroke-width="2.0"/><polyline points="118.5,319.6 123.6,319.6" fill="none" stroke="#2563eb" stroke-width="2.0"/><polygon points="184.2,362.1 186.7,362.1 186.7,358.7 184.2,358.7" fill="#2563eb" fill-opacity="0.7"/><polygon points="186.8,362.1 189.3,362.1 189.3,358.7 186.8,358.7" fill="#2563eb" fill-opacity="0.7"/><polygon points="186.6,360.5 186.9,360.5 186.9,360.3 186.6,360.3" fill="#e11d48" fill-opacity="0.7"/><polyline points="184.2,360.4 179.2,360.4" fill="none" stroke="#2563eb" stroke-width="2.0"/><polyline points="189.3,360.4 194.3,360.4" fill="none" stroke="#2563eb" stroke-width="2.0"/><polygon points="148.8,341.7 151.3,341.7 151.3,338.3 148.8,338.3" fill="#2563eb" fill-opacity="0.7"/><polygon points="151.5,341.7 153.9,341.7 153.9,338.3 151.5,338.3" fill="#2563eb" fill-opacity="0.7"/><polygon points="151.2,340.1 151.5,340.1 151.5,339.9 151.2,339.9" fill="#e11d48" fill-opacity="0.7"/><polyline points="148.8,340.0 143.8,340.0" fill="none" stroke="#2563eb" stroke-width="2.0"/><polyline points="153.9,340.0 158.9,340.0" fill="none" stroke="#2563eb" stroke-width="2.0"/><polygon points="254.9,402.9 257.4,402.9 257.4,399.6 254.9,399.6" fill="#2563eb" fill-opacity="0.7"/><polygon points="257.6,402.9 260.0,402.9 260.0,399.6 257.6,399.6" fill="#2563eb" fill-opacity="0.7"/><polygon points="257.3,401.4 257.6,401.4 257.6,401.1 257.3,401.1" fill="#e11d48" fill-opacity="0.7"/><polyline points="254.9,401.3 249.9,401.3" fill="none" stroke="#2563eb" stroke-width="2.0"/><polyline points="260.0,401.3 265.1,401.3" fill="none" stroke="#2563eb" stroke-width="2.0"/><polygon points="219.6,382.5 222.0,382.5 222.0,379.2 219.6,379.2" fill="#2563eb" fill-opacity="0.7"/><polygon points="222.2,382.5 224.6,382.5 224.6,379.2 222.2,379.2" fill="#2563eb" fill-opacity="0.7"/><polygon points="221.9,381.0 222.3,381.0 222.3,380.7 221.9,380.7" fill="#e11d48" fill-opacity="0.7"/><polyline points="219.6,380.8 214.5,380.8" fill="none" stroke="#2563eb" stroke-width="2.0"/><polyline points="224.6,380.8 229.7,380.8" fill="none" stroke="#2563eb" stroke-width="2.0"/><polygon points="325.7,443.8 328.1,443.8 328.1,440.4 325.7,440.4" fill="#2563eb" fill-opacity="0.7"/><polygon points="328.3,443.8 330.7,443.8 330.7,440.4 328.3,440.4" fill="#2563eb" fill-opacity="0.7"/><polygon points="328.0,442.2 328.4,442.2 328.4,442.0 328.0,442.0" fill="#e11d48" fill-opacity="0.7"/><polyline points="325.7,442.1 320.6,442.1" fill="none" stroke="#2563eb" stroke-width="2.0"/><polyline points="330.7,442.1 335.8,442.1" fill="none" stroke="#2563eb" stroke-width="2.0"/><polygon points="290.3,423.4 292.8,423.4 292.8,420.0 290.3,420.0" fill="#2563eb" fill-opacity="0.7"/><polygon points="292.9,423.4 295.4,423.4 295.4,420.0 292.9,420.0" fill="#2563eb" fill-opacity="0.7"/><polygon points="292.7,421.8 293.0,421.8 293.0,421.6 292.7,421.6" fill="#e11d48" fill-opacity="0.7"/><polyline points="290.3,421.7 285.3,421.7" fill="none" stroke="#2563eb" stroke-width="2.0"/><polyline points="295.4,421.7 300.4,421.7" fill="none" stroke="#2563eb" stroke-width="2.0"/><polygon points="396.4,484.6 398.9,484.6 398.9,481.3 396.4,481.3" fill="#2563eb" fill-opacity="0.7"/><polygon points="399.0,484.6 401.5,484.6 401.5,481.3 399.0,481.3" fill="#2563eb" fill-opacity="0.7"/><polygon points="398.8,483.1 399.1,483.1 399.1,482.8 398.8,482.8" fill="#e11d48" fill-opacity="0.7"/><polyline points="396.4,482.9 391.4,482.9" fill="none" stroke="#2563eb" stroke-width="2.0"/><polyline points="401.5,482.9 406.5,482.9" fill="none" stroke="#2563eb" stroke-width="2.0"/><polygon points="361.1,464.2 363.5,464.2 363.5,460.8 361.1,460.8" fill="#2563eb" fill-opacity="0.7"/><polygon points="363.7,464.2 366.1,464.2 366.1,460.8 363.7,460.8" fill="#2563eb" fill-opacity="0.7"/><polygon points="363.4,462.6 363.7,462.6 363.7,462.4 363.4,462.4" fill="#e11d48" fill-opacity="0.7"/><polyline points="361.1,462.5 356.0,462.5" fill="none" stroke="#2563eb" stroke-width="2.0"/><polyline points="366.1,462.5 371.2,462.5" fill="none" stroke="#2563eb" stroke-width="2.0"/><polygon points="184.2,280.4 186.7,280.4 186.7,277.1 184.2,277.1" fill="#2563eb" fill-opacity="0.7"/><polygon points="186.8,280.4 189.3,280.4 189.3,277.1 186.8,277.1" fill="#2563eb" fill-opacity="0.7"/><polygon points="186.6,278.9 186.9,278.9 186.9,278.6 186.6,278.6" fill="#e11d48" fill-opacity="0.7"/><polyline points="184.2,278.7 179.2,278.7" fill="none" stroke="#2563eb" stroke-width="2.0"/><polyline points="189.3,278.7 194.3,278.7" fill="none" stroke="#2563eb" stroke-width="2.0"/><polygon points="148.8,300.8 151.3,300.8 151.3,297.5 148.8,297.5" fill="#2563eb" fill-opacity="0.7"/><polygon points="151.5,300.8 153.9,300.8 153.9,297.5 151.5,297.5" fill="#2563eb" fill-opacity="0.7"/><polygon points="151.2,299.3 151.5,299.3 151.5,299.0 151.2,299.0" fill="#e11d48" fill-opacity="0.7"/><polyline points="148.8,299.2 143.8,299.2" fill="none" stroke="#2563eb" stroke-width="2.0"/><polyline points="153.9,299.2 158.9,299.2" fill="none" stroke="#2563eb" stroke-width="2.0"/><polygon points="254.9,321.3 257.4,321.3 257.4,317.9 254.9,317.9" fill="#2563eb" fill-opacity="0.7"/><polygon points="257.6,321.3 260.0,321.3 260.0,317.9 257.6,317.9" fill="#2563eb" fill-opacity="0.7"/><polygon points="257.3,319.7 257.6,319.7 257.6,319.5 257.3,319.5" fill="#e11d48" fill-opacity="0.7"/><polyline points="254.9,319.6 249.9,319.6" fill="none" stroke="#2563eb" stroke-width="2.0"/><polyline points="260.0,319.6 265.1,319.6" fill="none" stroke="#2563eb" stroke-width="2.0"/><polygon points="219.6,341.7 222.0,341.7 222.0,338.3 219.6,338.3" fill="#2563eb" fill-opacity="0.7"/><polygon points="222.2,341.7 224.6,341.7 224.6,338.3 222.2,338.3" fill="#2563eb" fill-opacity="0.7"/><polygon points="221.9,340.1 222.3,340.1 222.3,339.9 221.9,339.9" fill="#e11d48" fill-opacity="0.7"/><polyline points="219.6,340.0 214.5,340.0" fill="none" stroke="#2563eb" stroke-width="2.0"/><polyline points="224.6,340.0 229.7,340.0" fill="none" stroke="#2563eb" stroke-width="2.0"/><polygon points="219.6,300.8 222.0,300.8 222.0,297.5 219.6,297.5" fill="#2563eb" fill-opacity="0.7"/><polygon points="222.2,300.8 224.6,300.8 224.6,297.5 222.2,297.5" fill="#2563eb" fill-opacity="0.7"/><polygon points="221.9,299.3 222.3,299.3 222.3,299.0 221.9,299.0" fill="#e11d48" fill-opacity="0.7"/><polyline points="219.6,299.2 214.5,299.2" fill="none" stroke="#2563eb" stroke-width="2.0"/><polyline points="224.6,299.2 229.7,299.2" fill="none" stroke="#2563eb" stroke-width="2.0"/><polygon points="325.7,362.1 328.1,362.1 328.1,358.7 325.7,358.7" fill="#2563eb" fill-opacity="0.7"/><polygon points="328.3,362.1 330.7,362.1 330.7,358.7 328.3,358.7" fill="#2563eb" fill-opacity="0.7"/><polygon points="328.0,360.5 328.4,360.5 328.4,360.3 328.0,360.3" fill="#e11d48" fill-opacity="0.7"/><polyline points="325.7,360.4 320.6,360.4" fill="none" stroke="#2563eb" stroke-width="2.0"/><polyline points="330.7,360.4 335.8,360.4" fill="none" stroke="#2563eb" stroke-width="2.0"/><polygon points="290.3,382.5 292.8,382.5 292.8,379.2 290.3,379.2" fill="#2563eb" fill-opacity="0.7"/><polygon points="292.9,382.5 295.4,382.5 295.4,379.2 292.9,379.2" fill="#2563eb" fill-opacity="0.7"/><polygon points="292.7,381.0 293.0,381.0 293.0,380.7 292.7,380.7" fill="#e11d48" fill-opacity="0.7"/><polyline points="290.3,380.8 285.3,380.8" fill="none" stroke="#2563eb" stroke-width="2.0"/><polyline points="295.4,380.8 300.4,380.8" fill="none" stroke="#2563eb" stroke-width="2.0"/><polygon points="290.3,341.7 292.8,341.7 292.8,338.3 290.3,338.3" fill="#2563eb" fill-opacity="0.7"/><polygon points="292.9,341.7 295.4,341.7 295.4,338.3 292.9,338.3" fill="#2563eb" fill-opacity="0.7"/><polygon points="292.7,340.1 293.0,340.1 293.0,339.9 292.7,339.9" fill="#e11d48" fill-opacity="0.7"/><polyline points="290.3,340.0 285.3,340.0" fill="none" stroke="#2563eb" stroke-width="2.0"/><polyline points="295.4,340.0 300.4,340.0" fill="none" stroke="#2563eb" stroke-width="2.0"/><polygon points="396.4,402.9 398.9,402.9 398.9,399.6 396.4,399.6" fill="#2563eb" fill-opacity="0.7"/><polygon points="399.0,402.9 401.5,402.9 401.5,399.6 399.0,399.6" fill="#2563eb" fill-opacity="0.7"/><polygon points="398.8,401.4 399.1,401.4 399.1,401.1 398.8,401.1" fill="#e11d48" fill-opacity="0.7"/><polyline points="396.4,401.3 391.4,401.3" fill="none" stroke="#2563eb" stroke-width="2.0"/><polyline points="401.5,401.3 406.5,401.3" fill="none" stroke="#2563eb" stroke-width="2.0"/><polygon points="361.1,423.4 363.5,423.4 363.5,420.0 361.1,420.0" fill="#2563eb" fill-opacity="0.7"/><polygon points="363.7,423.4 366.1,423.4 366.1,420.0 363.7,420.0" fill="#2563eb" fill-opacity="0.7"/><polygon points="363.4,421.8 363.7,421.8 363.7,421.6 363.4,421.6" fill="#e11d48" fill-opacity="0.7"/><polyline points="361.1,421.7 356.0,421.7" fill="none" stroke="#2563eb" stroke-width="2.0"/><polyline points="366.1,421.7 371.2,421.7" fill="none" stroke="#2563eb" stroke-width="2.0"/><polygon points="361.1,382.5 363.5,382.5 363.5,379.2 361.1,379.2" fill="#2563eb" fill-opacity="0.7"/><polygon points="363.7,382.5 366.1,382.5 366.1,379.2 363.7,379.2" fill="#2563eb" fill-opacity="0.7"/><polygon points="363.4,381.0 363.7,381.0 363.7,380.7 363.4,380.7" fill="#e11d48" fill-opacity="0.7"/><polyline points="361.1,380.8 356.0,380.8" fill="none" stroke="#2563eb" stroke-width="2.0"/><polyline points="366.1,380.8 371.2,380.8" fill="none" stroke="#2563eb" stroke-width="2.0"/><polygon points="467.2,443.8 469.6,443.8 469.6,440.4 467.2,440.4" fill="#2563eb" fill-opacity="0.7"/><polygon points="469.8,443.8 472.2,443.8 472.2,440.4 469.8,440.4" fill="#2563eb" fill-opacity="0.7"/><polygon points="469.5,442.2 469.9,442.2 469.9,442.0 469.5,442.0" fill="#e11d48" fill-opacity="0.7"/><polyline points="467.2,442.1 462.1,442.1" fill="none" stroke="#2563eb" stroke-width="2.0"/><polyline points="472.2,442.1 477.3,442.1" fill="none" stroke="#2563eb" stroke-width="2.0"/><polygon points="431.8,464.2 434.2,464.2 434.2,460.8 431.8,460.8" fill="#2563eb" fill-opacity="0.7"/><polygon points="434.4,464.2 436.8,464.2 436.8,460.8 434.4,460.8" fill="#2563eb" fill-opacity="0.7"/><polygon points="434.1,462.6 434.5,462.6 434.5,462.4 434.1,462.4" fill="#e11d48" fill-opacity="0.7"/><polyline points="431.8,462.5 426.7,462.5" fill="none" stroke="#2563eb" stroke-width="2.0"/><polyline points="436.8,462.5 441.9,462.5" fill="none" stroke="#2563eb" stroke-width="2.0"/><polygon points="431.8,423.4 434.2,423.4 434.2,420.0 431.8,420.0" fill="#2563eb" fill-opacity="0.7"/><polygon points="434.4,423.4 436.8,423.4 436.8,420.0 434.4,420.0" fill="#2563eb" fill-opacity="0.7"/><polygon points="434.1,421.8 434.5,421.8 434.5,421.6 434.1,421.6" fill="#e11d48" fill-opacity="0.7"/><polyline points="431.8,421.7 426.7,421.7" fill="none" stroke="#2563eb" stroke-width="2.0"/><polyline points="436.8,421.7 441.9,421.7" fill="none" stroke="#2563eb" stroke-width="2.0"/><polygon points="254.9,239.6 257.4,239.6 257.4,236.2 254.9,236.2" fill="#2563eb" fill-opacity="0.7"/><polygon points="257.6,239.6 260.0,239.6 260.0,236.2 257.6,236.2" fill="#2563eb" fill-opacity="0.7"/><polygon points="257.3,238.0 257.6,238.0 257.6,237.8 257.3,237.8" fill="#e11d48" fill-opacity="0.7"/><polyline points="254.9,237.9 249.9,237.9" fill="none" stroke="#2563eb" stroke-width="2.0"/><polyline points="260.0,237.9 265.1,237.9" fill="none" stroke="#2563eb" stroke-width="2.0"/><polygon points="219.6,260.0 222.0,260.0 222.0,256.6 219.6,256.6" fill="#2563eb" fill-opacity="0.7"/><polygon points="222.2,260.0 224.6,260.0 224.6,256.6 222.2,256.6" fill="#2563eb" fill-opacity="0.7"/><polygon points="221.9,258.4 222.3,258.4 222.3,258.2 221.9,258.2" fill="#e11d48" fill-opacity="0.7"/><polyline points="219.6,258.3 214.5,258.3" fill="none" stroke="#2563eb" stroke-width="2.0"/><polyline points="224.6,258.3 229.7,258.3" fill="none" stroke="#2563eb" stroke-width="2.0"/><polygon points="325.7,280.4 328.1,280.4 328.1,277.1 325.7,277.1" fill="#2563eb" fill-opacity="0.7"/><polygon points="328.3,280.4 330.7,280.4 330.7,277.1 328.3,277.1" fill="#2563eb" fill-opacity="0.7"/><polygon points="328.0,278.9 328.4,278.9 328.4,278.6 328.0,278.6" fill="#e11d48" fill-opacity="0.7"/><polyline points="325.7,278.7 320.6,278.7" fill="none" stroke="#2563eb" stroke-width="2.0"/><polyline points="330.7,278.7 335.8,278.7" fill="none" stroke="#2563eb" stroke-width="2.0"/><polygon points="290.3,300.8 292.8,300.8 292.8,297.5 290.3,297.5" fill="#2563eb" fill-opacity="0.7"/><polygon points="292.9,300.8 295.4,300.8 295.4,297.5 292.9,297.5" fill="#2563eb" fill-opacity="0.7"/><polygon points="292.7,299.3 293.0,299.3 293.0,299.0 292.7,299.0" fill="#e11d48" fill-opacity="0.7"/><polyline points="290.3,299.2 285.3,299.2" fill="none" stroke="#2563eb" stroke-width="2.0"/><polyline points="295.4,299.2 300.4,299.2" fill="none" stroke="#2563eb" stroke-width="2.0"/><polygon points="290.3,260.0 292.8,260.0 292.8,256.6 290.3,256.6" fill="#2563eb" fill-opacity="0.7"/><polygon points="292.9,260.0 295.4,260.0 295.4,256.6 292.9,256.6" fill="#2563eb" fill-opacity="0.7"/><polygon points="292.7,258.4 293.0,258.4 293.0,258.2 292.7,258.2" fill="#e11d48" fill-opacity="0.7"/><polyline points="290.3,258.3 285.3,258.3" fill="none" stroke="#2563eb" stroke-width="2.0"/><polyline points="295.4,258.3 300.4,258.3" fill="none" stroke="#2563eb" stroke-width="2.0"/><polygon points="396.4,321.3 398.9,321.3 398.9,317.9 396.4,317.9" fill="#2563eb" fill-opacity="0.7"/><polygon points="399.0,321.3 401.5,321.3 401.5,317.9 399.0,317.9" fill="#2563eb" fill-opacity="0.7"/><polygon points="398.8,319.7 399.1,319.7 399.1,319.5 398.8,319.5" fill="#e11d48" fill-opacity="0.7"/><polyline points="396.4,319.6 391.4,319.6" fill="none" stroke="#2563eb" stroke-width="2.0"/><polyline points="401.5,319.6 406.5,319.6" fill="none" stroke="#2563eb" stroke-width="2.0"/><polygon points="361.1,341.7 363.5,341.7 363.5,338.3 361.1,338.3" fill="#2563eb" fill-opacity="0.7"/><polygon points="363.7,341.7 366.1,341.7 366.1,338.3 363.7,338.3" fill="#2563eb" fill-opacity="0.7"/><polygon points="363.4,340.1 363.7,340.1 363.7,339.9 363.4,339.9" fill="#e11d48" fill-opacity="0.7"/><polyline points="361.1,340.0 356.0,340.0" fill="none" stroke="#2563eb" stroke-width="2.0"/><polyline points="366.1,340.0 371.2,340.0" fill="none" stroke="#2563eb" stroke-width="2.0"/><polygon points="361.1,300.8 363.5,300.8 363.5,297.5 361.1,297.5" fill="#2563eb" fill-opacity="0.7"/><polygon points="363.7,300.8 366.1,300.8 366.1,297.5 363.7,297.5" fill="#2563eb" fill-opacity="0.7"/><polygon points="363.4,299.3 363.7,299.3 363.7,299.0 363.4,299.0" fill="#e11d48" fill-opacity="0.7"/><polyline points="361.1,299.2 356.0,299.2" fill="none" stroke="#2563eb" stroke-width="2.0"/><polyline points="366.1,299.2 371.2,299.2" fill="none" stroke="#2563eb" stroke-width="2.0"/><polygon points="467.2,362.1 469.6,362.1 469.6,358.7 467.2,358.7" fill="#2563eb" fill-opacity="0.7"/><polygon points="469.8,362.1 472.2,362.1 472.2,358.7 469.8,358.7" fill="#2563eb" fill-opacity="0.7"/><polygon points="469.5,360.5 469.9,360.5 469.9,360.3 469.5,360.3" fill="#e11d48" fill-opacity="0.7"/><polyline points="467.2,360.4 462.1,360.4" fill="none" stroke="#2563eb" stroke-width="2.0"/><polyline points="472.2,360.4 477.3,360.4" fill="none" stroke="#2563eb" stroke-width="2.0"/><polygon points="431.8,382.5 434.2,382.5 434.2,379.2 431.8,379.2" fill="#2563eb" fill-opacity="0.7"/><polygon points="434.4,382.5 436.8,382.5 436.8,379.2 434.4,379.2" fill="#2563eb" fill-opacity="0.7"/><polygon points="434.1,381.0 434.5,381.0 434.5,380.7 434.1,380.7" fill="#e11d48" fill-opacity="0.7"/><polyline points="431.8,380.8 426.7,380.8" fill="none" stroke="#2563eb" stroke-width="2.0"/><polyline points="436.8,380.8 441.9,380.8" fill="none" stroke="#2563eb" stroke-width="2.0"/><polygon points="431.8,341.7 434.2,341.7 434.2,338.3 431.8,338.3" fill="#2563eb" fill-opacity="0.7"/><polygon points="434.4,341.7 436.8,341.7 436.8,338.3 434.4,338.3" fill="#2563eb" fill-opacity="0.7"/><polygon points="434.1,340.1 434.5,340.1 434.5,339.9 434.1,339.9" fill="#e11d48" fill-opacity="0.7"/><polyline points="431.8,340.0 426.7,340.0" fill="none" stroke="#2563eb" stroke-width="2.0"/><polyline points="436.8,340.0 441.9,340.0" fill="none" stroke="#2563eb" stroke-width="2.0"/><polygon points="537.9,402.9 540.3,402.9 540.3,399.6 537.9,399.6" fill="#2563eb" fill-opacity="0.7"/><polygon points="540.5,402.9 542.9,402.9 542.9,399.6 540.5,399.6" fill="#2563eb" fill-opacity="0.7"/><polygon points="540.3,401.4 540.6,401.4 540.6,401.1 540.3,401.1" fill="#e11d48" fill-opacity="0.7"/><polyline points="537.9,401.3 532.8,401.3" fill="none" stroke="#2563eb" stroke-width="2.0"/><polyline points="542.9,401.3 548.0,401.3" fill="none" stroke="#2563eb" stroke-width="2.0"/><polygon points="502.5,423.4 505.0,423.4 505.0,420.0 502.5,420.0" fill="#2563eb" fill-opacity="0.7"/><polygon points="505.1,423.4 507.6,423.4 507.6,420.0 505.1,420.0" fill="#2563eb" fill-opacity="0.7"/><polygon points="504.9,421.8 505.2,421.8 505.2,421.6 504.9,421.6" fill="#e11d48" fill-opacity="0.7"/><polyline points="502.5,421.7 497.5,421.7" fill="none" stroke="#2563eb" stroke-width="2.0"/><polyline points="507.6,421.7 512.6,421.7" fill="none" stroke="#2563eb" stroke-width="2.0"/><polygon points="502.5,382.5 505.0,382.5 505.0,379.2 502.5,379.2" fill="#2563eb" fill-opacity="0.7"/><polygon points="505.1,382.5 507.6,382.5 507.6,379.2 505.1,379.2" fill="#2563eb" fill-opacity="0.7"/><polygon points="504.9,381.0 505.2,381.0 505.2,380.7 504.9,380.7" fill="#e11d48" fill-opacity="0.7"/><polyline points="502.5,380.8 497.5,380.8" fill="none" stroke="#2563eb" stroke-width="2.0"/><polyline points="507.6,380.8 512.6,380.8" fill="none" stroke="#2563eb" stroke-width="2.0"/><polygon points="325.7,198.7 328.1,198.7 328.1,195.4 325.7,195.4" fill="#2563eb" fill-opacity="0.7"/><polygon points="328.3,198.7 330.7,198.7 330.7,195.4 328.3,195.4" fill="#2563eb" fill-opacity="0.7"/><polygon points="328.0,197.2 328.4,197.2 328.4,196.9 328.0,196.9" fill="#e11d48" fill-opacity="0.7"/><polyline points="325.7,197.1 320.6,197.1" fill="none" stroke="#2563eb" stroke-width="2.0"/><polyline points="330.7,197.1 335.8,197.1" fill="none" stroke="#2563eb" stroke-width="2.0"/><polygon points="290.3,219.2 292.8,219.2 292.8,215.8 290.3,215.8" fill="#2563eb" fill-opacity="0.7"/><polygon points="292.9,219.2 295.4,219.2 295.4,215.8 292.9,215.8" fill="#2563eb" fill-opacity="0.7"/><polygon points="292.7,217.6 293.0,217.6 293.0,217.4 292.7,217.4" fill="#e11d48" fill-opacity="0.7"/><polyline points="290.3,217.5 285.3,217.5" fill="none" stroke="#2563eb" stroke-width="2.0"/><polyline points="295.4,217.5 300.4,217.5" fill="none" stroke="#2563eb" stroke-width="2.0"/><polygon points="396.4,239.6 398.9,239.6 398.9,236.2 396.4,236.2" fill="#2563eb" fill-opacity="0.7"/><polygon points="399.0,239.6 401.5,239.6 401.5,236.2 399.0,236.2" fill="#2563eb" fill-opacity="0.7"/><polygon points="398.8,238.0 399.1,238.0 399.1,237.8 398.8,237.8" fill="#e11d48" fill-opacity="0.7"/><polyline points="396.4,237.9 391.4,237.9" fill="none" stroke="#2563eb" stroke-width="2.0"/><polyline points="401.5,237.9 406.5,237.9" fill="none" stroke="#2563eb" stroke-width="2.0"/><polygon points="361.1,260.0 363.5,260.0 363.5,256.6 361.1,256.6" fill="#2563eb" fill-opacity="0.7"/><polygon points="363.7,260.0 366.1,260.0 366.1,256.6 363.7,256.6" fill="#2563eb" fill-opacity="0.7"/><polygon points="363.4,258.4 363.7,258.4 363.7,258.2 363.4,258.2" fill="#e11d48" fill-opacity="0.7"/><polyline points="361.1,258.3 356.0,258.3" fill="none" stroke="#2563eb" stroke-width="2.0"/><polyline points="366.1,258.3 371.2,258.3" fill="none" stroke="#2563eb" stroke-width="2.0"/><polygon points="361.1,219.2 363.5,219.2 363.5,215.8 361.1,215.8" fill="#2563eb" fill-opacity="0.7"/><polygon points="363.7,219.2 366.1,219.2 366.1,215.8 363.7,215.8" fill="#2563eb" fill-opacity="0.7"/><polygon points="363.4,217.6 363.7,217.6 363.7,217.4 363.4,217.4" fill="#e11d48" fill-opacity="0.7"/><polyline points="361.1,217.5 356.0,217.5" fill="none" stroke="#2563eb" stroke-width="2.0"/><polyline points="366.1,217.5 371.2,217.5" fill="none" stroke="#2563eb" stroke-width="2.0"/><polygon points="467.2,280.4 469.6,280.4 469.6,277.1 467.2,277.1" fill="#2563eb" fill-opacity="0.7"/><polygon points="469.8,280.4 472.2,280.4 472.2,277.1 469.8,277.1" fill="#2563eb" fill-opacity="0.7"/><polygon points="469.5,278.9 469.9,278.9 469.9,278.6 469.5,278.6" fill="#e11d48" fill-opacity="0.7"/><polyline points="467.2,278.7 462.1,278.7" fill="none" stroke="#2563eb" stroke-width="2.0"/><polyline points="472.2,278.7 477.3,278.7" fill="none" stroke="#2563eb" stroke-width="2.0"/><polygon points="431.8,300.8 434.2,300.8 434.2,297.5 431.8,297.5" fill="#2563eb" fill-opacity="0.7"/><polygon points="434.4,300.8 436.8,300.8 436.8,297.5 434.4,297.5" fill="#2563eb" fill-opacity="0.7"/><polygon points="434.1,299.3 434.5,299.3 434.5,299.0 434.1,299.0" fill="#e11d48" fill-opacity="0.7"/><polyline points="431.8,299.2 426.7,299.2" fill="none" stroke="#2563eb" stroke-width="2.0"/><polyline points="436.8,299.2 441.9,299.2" fill="none" stroke="#2563eb" stroke-width="2.0"/><polygon points="431.8,260.0 434.2,260.0 434.2,256.6 431.8,256.6" fill="#2563eb" fill-opacity="0.7"/><polygon points="434.4,260.0 436.8,260.0 436.8,256.6 434.4,256.6" fill="#2563eb" fill-opacity="0.7"/><polygon points="434.1,258.4 434.5,258.4 434.5,258.2 434.1,258.2" fill="#e11d48" fill-opacity="0.7"/><polyline points="431.8,258.3 426.7,258.3" fill="none" stroke="#2563eb" stroke-width="2.0"/><polyline points="436.8,258.3 441.9,258.3" fill="none" stroke="#2563eb" stroke-width="2.0"/><polygon points="537.9,321.3 540.3,321.3 540.3,317.9 537.9,317.9" fill="#2563eb" fill-opacity="0.7"/><polygon points="540.5,321.3 542.9,321.3 542.9,317.9 540.5,317.9" fill="#2563eb" fill-opacity="0.7"/><polygon points="540.3,319.7 540.6,319.7 540.6,319.5 540.3,319.5" fill="#e11d48" fill-opacity="0.7"/><polyline points="537.9,319.6 532.8,319.6" fill="none" stroke="#2563eb" stroke-width="2.0"/><polyline points="542.9,319.6 548.0,319.6" fill="none" stroke="#2563eb" stroke-width="2.0"/><polygon points="502.5,341.7 505.0,341.7 505.0,338.3 502.5,338.3" fill="#2563eb" fill-opacity="0.7"/><polygon points="505.1,341.7 507.6,341.7 507.6,338.3 505.1,338.3" fill="#2563eb" fill-opacity="0.7"/><polygon points="504.9,340.1 505.2,340.1 505.2,339.9 504.9,339.9" fill="#e11d48" fill-opacity="0.7"/><polyline points="502.5,340.0 497.5,340.0" fill="none" stroke="#2563eb" stroke-width="2.0"/><polyline points="507.6,340.0 512.6,340.0" fill="none" stroke="#2563eb" stroke-width="2.0"/><polygon points="502.5,300.8 505.0,300.8 505.0,297.5 502.5,297.5" fill="#2563eb" fill-opacity="0.7"/><polygon points="505.1,300.8 507.6,300.8 507.6,297.5 505.1,297.5" fill="#2563eb" fill-opacity="0.7"/><polygon points="504.9,299.3 505.2,299.3 505.2,299.0 504.9,299.0" fill="#e11d48" fill-opacity="0.7"/><polyline points="502.5,299.2 497.5,299.2" fill="none" stroke="#2563eb" stroke-width="2.0"/><polyline points="507.6,299.2 512.6,299.2" fill="none" stroke="#2563eb" stroke-width="2.0"/><polygon points="608.6,362.1 611.1,362.1 611.1,358.7 608.6,358.7" fill="#2563eb" fill-opacity="0.7"/><polygon points="611.2,362.1 613.7,362.1 613.7,358.7 611.2,358.7" fill="#2563eb" fill-opacity="0.7"/><polygon points="611.0,360.5 611.3,360.5 611.3,360.3 611.0,360.3" fill="#e11d48" fill-opacity="0.7"/><polyline points="608.6,360.4 603.6,360.4" fill="none" stroke="#2563eb" stroke-width="2.0"/><polyline points="613.7,360.4 618.7,360.4" fill="none" stroke="#2563eb" stroke-width="2.0"/><polygon points="573.3,382.5 575.7,382.5 575.7,379.2 573.3,379.2" fill="#2563eb" fill-opacity="0.7"/><polygon points="575.9,382.5 578.3,382.5 578.3,379.2 575.9,379.2" fill="#2563eb" fill-opacity="0.7"/><polygon points="575.6,381.0 576.0,381.0 576.0,380.7 575.6,380.7" fill="#e11d48" fill-opacity="0.7"/><polyline points="573.3,380.8 568.2,380.8" fill="none" stroke="#2563eb" stroke-width="2.0"/><polyline points="578.3,380.8 583.4,380.8" fill="none" stroke="#2563eb" stroke-width="2.0"/><polygon points="573.3,341.7 575.7,341.7 575.7,338.3 573.3,338.3" fill="#2563eb" fill-opacity="0.7"/><polygon points="575.9,341.7 578.3,341.7 578.3,338.3 575.9,338.3" fill="#2563eb" fill-opacity="0.7"/><polygon points="575.6,340.1 576.0,340.1 576.0,339.9 575.6,339.9" fill="#e11d48" fill-opacity="0.7"/><polyline points="573.3,340.0 568.2,340.0" fill="none" stroke="#2563eb" stroke-width="2.0"/><polyline points="578.3,340.0 583.4,340.0" fill="none" stroke="#2563eb" stroke-width="2.0"/><polygon points="92.4,319.4 116.0,319.4 116.0,319.8 92.4,319.8" fill="#f59e0b" fill-opacity="0.7"/><polygon points="139.6,319.8 116.0,319.8 116.0,319.4 139.6,319.4" fill="#f59e0b" fill-opacity="0.7"/><polygon points="163.2,360.2 186.7,360.2 186.7,360.6 163.2,360.6" fill="#f59e0b" fill-opacity="0.7"/><polygon points="210.3,360.6 186.7,360.6 186.7,360.2 210.3,360.2" fill="#f59e0b" fill-opacity="0.7"/><polygon points="163.0,360.5 151.2,340.1 151.6,339.9 163.3,360.3" fill="#f59e0b" fill-opacity="0.7"/><polygon points="139.8,319.5 151.6,339.9 151.2,340.1 139.4,319.7" fill="#f59e0b" fill-opacity="0.7"/><polygon points="233.9,401.0 257.5,401.0 257.5,401.5 233.9,401.5" fill="#f59e0b" fill-opacity="0.7"/><polygon points="281.1,401.5 257.5,401.5 257.5,401.0 281.1,401.0" fill="#f59e0b" fill-opacity="0.7"/><polygon points="233.7,401.4 221.9,380.9 222.3,380.7 234.1,401.2" fill="#f59e0b" fill-opacity="0.7"/><polygon points="210.5,360.3 222.3,380.7 221.9,380.9 210.1,360.5" fill="#f59e0b" fill-opacity="0.7"/><polygon points="304.6,441.9 328.2,441.9 328.2,442.3 304.6,442.3" fill="#f59e0b" fill-opacity="0.7"/><polygon points="351.8,442.3 328.2,442.3 328.2,441.9 351.8,441.9" fill="#f59e0b" fill-opacity="0.7"/><polygon points="304.4,442.2 292.7,421.8 293.0,421.6 304.8,442.0" fill="#f59e0b" fill-opacity="0.7"/><polygon points="281.2,401.2 293.0,421.6 292.7,421.8 280.9,401.4" fill="#f59e0b" fill-opacity="0.7"/><polygon points="375.4,482.7 398.9,482.7 398.9,483.2 375.4,483.2" fill="#f59e0b" fill-opacity="0.7"/><polygon points="422.5,483.2 398.9,483.2 398.9,482.7 422.5,482.7" fill="#f59e0b" fill-opacity="0.7"/><polygon points="375.2,483.0 363.4,462.6 363.8,462.4 375.6,482.8" fill="#f59e0b" fill-opacity="0.7"/><polygon points="352.0,442.0 363.8,462.4 363.4,462.6 351.6,442.2" fill="#f59e0b" fill-opacity="0.7"/><polygon points="163.2,278.5 186.7,278.5 186.7,279.0 163.2,279.0" fill="#f59e0b" fill-opacity="0.7"/><polygon points="210.3,279.0 186.7,279.0 186.7,278.5 210.3,278.5" fill="#f59e0b" fill-opacity="0.7"/><polygon points="163.3,278.8 151.6,299.3 151.2,299.1 163.0,278.6" fill="#f59e0b" fill-opacity="0.7"/><polygon points="139.4,319.5 151.2,299.1 151.6,299.3 139.8,319.7" fill="#f59e0b" fill-opacity="0.7"/><polygon points="233.9,319.4 257.5,319.4 257.5,319.8 233.9,319.8" fill="#f59e0b" fill-opacity="0.7"/><polygon points="281.1,319.8 257.5,319.8 257.5,319.4 281.1,319.4" fill="#f59e0b" fill-opacity="0.7"/><polygon points="234.1,319.7 222.3,340.1 221.9,339.9 233.7,319.5" fill="#f59e0b" fill-opacity="0.7"/><polygon points="210.1,360.3 221.9,339.9 222.3,340.1 210.5,360.5" fill="#f59e0b" fill-opacity="0.7"/><polygon points="233.7,319.7 221.9,299.3 222.3,299.1 234.1,319.5" fill="#f59e0b" fill-opacity="0.7"/><polygon points="210.5,278.6 222.3,299.1 221.9,299.3 210.1,278.8" fill="#f59e0b" fill-opacity="0.7"/><polygon points="304.6,360.2 328.2,360.2 328.2,360.6 304.6,360.6" fill="#f59e0b" fill-opacity="0.7"/><polygon points="351.8,360.6 328.2,360.6 328.2,360.2 351.8,360.2" fill="#f59e0b" fill-opacity="0.7"/><polygon points="304.8,360.5 293.0,380.9 292.7,380.7 304.4,360.3" fill="#f59e0b" fill-opacity="0.7"/><polygon points="280.9,401.2 292.7,380.7 293.0,380.9 281.2,401.4" fill="#f59e0b" fill-opacity="0.7"/><polygon points="304.4,360.5 292.7,340.1 293.0,339.9 304.8,360.3" fill="#f59e0b" fill-opacity="0.7"/><polygon points="281.2,319.5 293.0,339.9 292.7,340.1 280.9,319.7" fill="#f59e0b" fill-opacity="0.7"/><polygon points="375.4,401.0 398.9,401.0 398.9,401.5 375.4,401.5" fill="#f59e0b" fill-opacity="0.7"/><polygon points="422.5,401.5 398.9,401.5 398.9,401.0 422.5,401.0" fill="#f59e0b" fill-opacity="0.7"/><polygon points="375.6,401.4 363.8,421.8 363.4,421.6 375.2,401.2" fill="#f59e0b" fill-opacity="0.7"/><polygon points="351.6,442.0 363.4,421.6 363.8,421.8 352.0,442.2" fill="#f59e0b" fill-opacity="0.7"/><polygon points="375.2,401.4 363.4,380.9 363.8,380.7 375.6,401.2" fill="#f59e0b" fill-opacity="0.7"/><polygon points="352.0,360.3 363.8,380.7 363.4,380.9 351.6,360.5" fill="#f59e0b" fill-opacity="0.7"/><polygon points="446.1,441.9 469.7,441.9 469.7,442.3 446.1,442.3" fill="#f59e0b" fill-opacity="0.7"/><polygon points="493.3,442.3 469.7,442.3 469.7,441.9 493.3,441.9" fill="#f59e0b" fill-opacity="0.7"/><polygon points="446.3,442.2 434.5,462.6 434.1,462.4 445.9,442.0" fill="#f59e0b" fill-opacity="0.7"/><polygon points="422.3,482.8 434.1,462.4 434.5,462.6 422.7,483.0" fill="#f59e0b" fill-opacity="0.7"/><polygon points="445.9,442.2 434.1,421.8 434.5,421.6 446.3,442.0" fill="#f59e0b" fill-opacity="0.7"/><polygon points="422.7,401.2 434.5,421.6 434.1,421.8 422.3,401.4" fill="#f59e0b" fill-opacity="0.7"/><polygon points="233.9,237.7 257.5,237.7 257.5,238.1 233.9,238.1" fill="#f59e0b" fill-opacity="0.7"/><polygon points="281.1,238.1 257.5,238.1 257.5,237.7 281.1,237.7" fill="#f59e0b" fill-opacity="0.7"/><polygon points="234.1,238.0 222.3,258.4 221.9,258.2 233.7,237.8" fill="#f59e0b" fill-opacity="0.7"/><polygon points="210.1,278.6 221.9,258.2 222.3,258.4 210.5,278.8" fill="#f59e0b" fill-opacity="0.7"/><polygon points="304.6,278.5 328.2,278.5 328.2,279.0 304.6,279.0" fill="#f59e0b" fill-opacity="0.7"/><polygon points="351.8,279.0 328.2,279.0 328.2,278.5 351.8,278.5" fill="#f59e0b" fill-opacity="0.7"/><polygon points="304.8,278.8 293.0,299.3 292.7,299.1 304.4,278.6" fill="#f59e0b" fill-opacity="0.7"/><polygon points="280.9,319.5 292.7,299.1 293.0,299.3 281.2,319.7" fill="#f59e0b" fill-opacity="0.7"/><polygon points="304.4,278.8 292.7,258.4 293.0,258.2 304.8,278.6" fill="#f59e0b" fill-opacity="0.7"/><polygon points="281.2,237.8 293.0,258.2 292.7,258.4 280.9,238.0" fill="#f59e0b" fill-opacity="0.7"/><polygon points="375.4,319.4 398.9,319.4 398.9,319.8 375.4,319.8" fill="#f59e0b" fill-opacity="0.7"/><polygon points="422.5,319.8 398.9,319.8 398.9,319.4 422.5,319.4" fill="#f59e0b" fill-opacity="0.7"/><polygon points="375.6,319.7 363.8,340.1 363.4,339.9 375.2,319.5" fill="#f59e0b" fill-opacity="0.7"/><polygon points="351.6,360.3 363.4,339.9 363.8,340.1 352.0,360.5" fill="#f59e0b" fill-opacity="0.7"/><polygon points="375.2,319.7 363.4,299.3 363.8,299.1 375.6,319.5" fill="#f59e0b" fill-opacity="0.7"/><polygon points="352.0,278.6 363.8,299.1 363.4,299.3 351.6,278.8" fill="#f59e0b" fill-opacity="0.7"/><polygon points="446.1,360.2 469.7,360.2 469.7,360.6 446.1,360.6" fill="#f59e0b" fill-opacity="0.7"/><polygon points="493.3,360.6 469.7,360.6 469.7,360.2 493.3,360.2" fill="#f59e0b" fill-opacity="0.7"/><polygon points="446.3,360.5 434.5,380.9 434.1,380.7 445.9,360.3" fill="#f59e0b" fill-opacity="0.7"/><polygon points="422.3,401.2 434.1,380.7 434.5,380.9 422.7,401.4" fill="#f59e0b" fill-opacity="0.7"/><polygon points="445.9,360.5 434.1,340.1 434.5,339.9 446.3,360.3" fill="#f59e0b" fill-opacity="0.7"/><polygon points="422.7,319.5 434.5,339.9 434.1,340.1 422.3,319.7" fill="#f59e0b" fill-opacity="0.7"/><polygon points="516.8,401.0 540.4,401.0 540.4,401.5 516.8,401.5" fill="#f59e0b" fill-opacity="0.7"/><polygon points="564.0,401.5 540.4,401.5 540.4,401.0 564.0,401.0" fill="#f59e0b" fill-opacity="0.7"/><polygon points="517.0,401.4 505.2,421.8 504.9,421.6 516.7,401.2" fill="#f59e0b" fill-opacity="0.7"/><polygon points="493.1,442.0 504.9,421.6 505.2,421.8 493.4,442.2" fill="#f59e0b" fill-opacity="0.7"/><polygon points="516.7,401.4 504.9,380.9 505.2,380.7 517.0,401.2" fill="#f59e0b" fill-opacity="0.7"/><polygon points="493.4,360.3 505.2,380.7 504.9,380.9 493.1,360.5" fill="#f59e0b" fill-opacity="0.7"/><polygon points="304.6,196.8 328.2,196.8 328.2,197.3 304.6,197.3" fill="#f59e0b" fill-opacity="0.7"/><polygon points="351.8,197.3 328.2,197.3 328.2,196.8 351.8,196.8" fill="#f59e0b" fill-opacity="0.7"/><polygon points="304.8,197.2 293.0,217.6 292.7,217.4 304.4,197.0" fill="#f59e0b" fill-opacity="0.7"/><polygon points="280.9,237.8 292.7,217.4 293.0,217.6 281.2,238.0" fill="#f59e0b" fill-opacity="0.7"/><polygon points="375.4,237.7 398.9,237.7 398.9,238.1 375.4,238.1" fill="#f59e0b" fill-opacity="0.7"/><polygon points="422.5,238.1 398.9,238.1 398.9,237.7 422.5,237.7" fill="#f59e0b" fill-opacity="0.7"/><polygon points="375.6,238.0 363.8,258.4 363.4,258.2 375.2,237.8" fill="#f59e0b" fill-opacity="0.7"/><polygon points="351.6,278.6 363.4,258.2 363.8,258.4 352.0,278.8" fill="#f59e0b" fill-opacity="0.7"/><polygon points="375.2,238.0 363.4,217.6 363.8,217.4 375.6,237.8" fill="#f59e0b" fill-opacity="0.7"/><polygon points="352.0,197.0 363.8,217.4 363.4,217.6 351.6,197.2" fill="#f59e0b" fill-opacity="0.7"/><polygon points="446.1,278.5 469.7,278.5 469.7,279.0 446.1,279.0" fill="#f59e0b" fill-opacity="0.7"/><polygon points="493.3,279.0 469.7,279.0 469.7,278.5 493.3,278.5" fill="#f59e0b" fill-opacity="0.7"/><polygon points="446.3,278.8 434.5,299.3 434.1,299.1 445.9,278.6" fill="#f59e0b" fill-opacity="0.7"/><polygon points="422.3,319.5 434.1,299.1 434.5,299.3 422.7,319.7" fill="#f59e0b" fill-opacity="0.7"/><polygon points="445.9,278.8 434.1,258.4 434.5,258.2 446.3,278.6" fill="#f59e0b" fill-opacity="0.7"/><polygon points="422.7,237.8 434.5,258.2 434.1,258.4 422.3,238.0" fill="#f59e0b" fill-opacity="0.7"/><polygon points="516.8,319.4 540.4,319.4 540.4,319.8 516.8,319.8" fill="#f59e0b" fill-opacity="0.7"/><polygon points="564.0,319.8 540.4,319.8 540.4,319.4 564.0,319.4" fill="#f59e0b" fill-opacity="0.7"/><polygon points="517.0,319.7 505.2,340.1 504.9,339.9 516.7,319.5" fill="#f59e0b" fill-opacity="0.7"/><polygon points="493.1,360.3 504.9,339.9 505.2,340.1 493.4,360.5" fill="#f59e0b" fill-opacity="0.7"/><polygon points="516.7,319.7 504.9,299.3 505.2,299.1 517.0,319.5" fill="#f59e0b" fill-opacity="0.7"/><polygon points="493.4,278.6 505.2,299.1 504.9,299.3 493.1,278.8" fill="#f59e0b" fill-opacity="0.7"/><polygon points="587.6,360.2 611.2,360.2 611.2,360.6 587.6,360.6" fill="#f59e0b" fill-opacity="0.7"/><polygon points="634.7,360.6 611.2,360.6 611.2,360.2 634.7,360.2" fill="#f59e0b" fill-opacity="0.7"/><polygon points="587.8,360.5 576.0,380.9 575.6,380.7 587.4,360.3" fill="#f59e0b" fill-opacity="0.7"/><polygon points="563.8,401.2 575.6,380.7 576.0,380.9 564.2,401.4" fill="#f59e0b" fill-opacity="0.7"/><polygon points="587.4,360.5 575.6,340.1 576.0,339.9 587.8,360.3" fill="#f59e0b" fill-opacity="0.7"/><polygon points="564.2,319.5 576.0,339.9 575.6,340.1 563.8,319.7" fill="#f59e0b" fill-opacity="0.7"/><polygon points="24.0,194.5 656.0,194.5 656.0,24.0 24.0,24.0" fill="#e2e8f0" fill-opacity="0.7"/><polygon points="24.0,485.5 656.0,485.5 656.0,656.0 24.0,656.0" fill="#e2e8f0" fill-opacity="0.7"/><polygon points="24.0,485.5 36.6,485.5 36.6,194.5 24.0,194.5" fill="#e2e8f0" fill-opacity="0.7"/><polygon points="643.4,485.5 656.0,485.5 656.0,194.5 643.4,194.5" fill="#e2e8f0" fill-opacity="0.7"/></svg>