<svg width="560" height="560" style="background:#fff;border:1px solid #ddd;border-radius:6px"><polygon points="135.4,284.3 152.1,284.3 152.1,261.2 135.4,261.2" fill="#2563eb" fill-opacity="0.7"/><polygon points="153.3,284.3 170.1,284.3 170.1,261.2 153.3,261.2" fill="#2563eb" fill-opacity="0.7"/><polygon points="151.6,273.6 153.9,273.6 153.9,271.9 151.6,271.9" fill="#e11d48" fill-opacity="0.7"/><polyline points="135.4,272.8 100.7,272.8" fill="none" stroke="#2563eb" stroke-width="2.9"/><polyline points="170.1,272.8 204.8,272.8" fill="none" stroke="#2563eb" stroke-width="2.9"/><polygon points="262.6,284.3 279.4,284.3 279.4,261.2 262.6,261.2" fill="#2563eb" fill-opacity="0.7"/><polygon points="280.6,284.3 297.4,284.3 297.4,261.2 280.6,261.2" fill="#2563eb" fill-opacity="0.7"/><polygon points="278.8,273.6 281.2,273.6 281.2,271.9 278.8,271.9" fill="#e11d48" fill-opacity="0.7"/><polyline points="262.6,272.8 227.9,272.8" fill="none" stroke="#2563eb" stroke-width="2.9"/><polyline points="297.4,272.8 332.1,272.8" fill="none" stroke="#2563eb" stroke-width="2.9"/><polygon points="389.9,284.3 406.7,284.3 406.7,261.2 389.9,261.2" fill="#2563eb" fill-opacity="0.7"/><polygon points="407.9,284.3 424.6,284.3 424.6,261.2 407.9,261.2" fill="#2563eb" fill-opacity="0.7"/><polygon points="406.1,273.6 408.4,273.6 408.4,271.9 406.1,271.9" fill="#e11d48" fill-opacity="0.7"/><polyline points="389.9,272.8 355.2,272.8" fill="none" stroke="#2563eb" stroke-width="2.9"/><polyline points="424.6,272.8 459.3,272.8" fill="none" stroke="#2563eb" stroke-width="2.9"/><polygon points="135.4,203.3 152.1,203.3 152.1,180.2 135.4,180.2" fill="#2563eb" fill-opacity="0.7"/><polygon points="153.3,203.3 170.1,203.3 170.1,180.2 153.3,180.2" fill="#2563eb" fill-opacity="0.7"/><polygon points="151.6,192.6 153.9,192.6 153.9,190.9 151.6,190.9" fill="#e11d48" fill-opacity="0.7"/><polyline points="135.4,191.8 100.7,191.8" fill="none" stroke="#2563eb" stroke-width="2.9"/><polyline points="170.1,191.8 204.8,191.8" fill="none" stroke="#2563eb" stroke-width="2.9"/><polygon points="262.6,203.3 279.4,203.3 279.4,180.2 262.6,180.2" fill="#2563eb" fill-opacity="0.7"/><polygon points="280.6,203.3 297.4,203.3 297.4,180.2 280.6,180.2" fill="#2563eb" fill-opacity="0.7"/><polygon points="278.8,192.6 281.2,192.6 281.2,190.9 278.8,190.9" fill="#e11d48" fill-opacity="0.7"/><polyline points="262.6,191.8 227.9,191.8" fill="none" stroke="#2563eb" stroke-width="2.9"/><polyline points="297.4,191.8 332.1,191.8" fill="none" stroke="#2563eb" stroke-width="2.9"/><polygon points="389.9,203.3 406.7,203.3 406.7,180.2 389.9,180.2" fill="#2563eb" fill-opacity="0.7"/><polygon points="407.9,203.3 424.6,203.3 424.6,180.2 407.9,180.2" fill="#2563eb" fill-opacity="0.7"/><polygon points="406.1,192.6 408.4,192.6 408.4,190.9 406.1,190.9" fill="#e11d48" fill-opacity="0.7"/><polyline points="389.9,191.8 355.2,191.8" fill="none" stroke="#2563eb" stroke-width="2.9"/><polyline points="424.6,191.8 459.3,191.8" fill="none" stroke="#2563eb" stroke-width="2.9"/><polygon points="135.4,122.4 152.1,122.4 152.1,99.2 135.4,99.2" fill="#2563eb" fill-opacity="0.7"/><polygon points="153.3,122.4 170.1,122.4 170.1,99.2 153.3,99.2" fill="#2563eb" fill-opacity="0.7"/><polygon points="151.6,111.6 153.9,111.6 153.9,109.9 151.6,109.9" fill="#e11d48" fill-opacity="0.7"/><polyline points="135.4,110.8 100.7,110.8" fill="none" stroke="#2563eb" stroke-width="2.9"/><polyline points="170.1,110.8 204.8,110.8" fill="none" stroke="#2563eb" stroke-width="2.9"/><polygon points="262.6,122.4 279.4,122.4 279.4,99.2 262.6,99.2" fill="#2563eb" fill-opacity="0.7"/><polygon points="280.6,122.4 297.4,122.4 297.4,99.2 280.6,99.2" fill="#2563eb" fill-opacity="0.7"/><polygon points="278.8,111.6 281.2,111.6 281.2,109.9 278.8,109.9" fill="#e11d48" fill-opacity="0.7"/><polyline points="262.6,110.8 227.9,110.8" fill="none" stroke="#2563eb" stroke-width="2.9"/><polyline points="297.4,110.8 332.1,110.8" fill="none" stroke="#2563eb" stroke-width="2.9"/><polygon points="389.9,122.4 406.7,122.4 406.7,99.2 389.9,99.2" fill="#2563eb" fill-opacity="0.7"/><polygon points="407.9,122.4 424.6,122.4 424.6,99.2 407.9,99.2" fill="#2563eb" fill-opacity="0.7"/><polygon points="406.1,111.6 408.4,111.6 408.4,109.9 406.1,109.9" fill="#e11d48" fill-opacity="0.7"/><polyline points="389.9,110.8 355.2,110.8" fill="none" stroke="#2563eb" stroke-width="2.9"/><polyline points="424.6,110.8 459.3,110.8" fill="none" stroke="#2563eb" stroke-width="2.9"/><polygon points="201.9,274.2 230.8,274.2 230.8,271.3 201.9,271.3" fill="#f59e0b" fill-opacity="0.7"/><polygon points="329.2,274.2 358.1,274.2 358.1,271.3 329.2,271.3" fill="#f59e0b" fill-opacity="0.7"/><polygon points="201.9,193.2 230.8,193.2 230.8,190.3 201.9,190.3" fill="#f59e0b" fill-opacity="0.7"/><polygon points="329.2,193.2 358.1,193.2 358.1,190.3 329.2,190.3" fill="#f59e0b" fill-opacity="0.7"/><polygon points="201.9,112.2 230.8,112.2 230.8,109.3 201.9,109.3" fill="#f59e0b" fill-opacity="0.7"/><polygon points="329.2,112.2 358.1,112.2 358.1,109.3 329.2,109.3" fill="#f59e0b" fill-opacity="0.7"/><polygon points="151.3,264.1 154.2,264.1 154.2,200.5 151.3,200.5" fill="#f59e0b" fill-opacity="0.7"/><polygon points="278.6,264.1 281.4,264.1 281.4,200.5 278.6,200.5" fill="#f59e0b" fill-opacity="0.7"/><polygon points="405.8,264.1 408.7,264.1 408.7,200.5 405.8,200.5" fill="#f59e0b" fill-opacity="0.7"/><polygon points="151.3,183.1 154.2,183.1 154.2,119.5 151.3,119.5" fill="#f59e0b" fill-opacity="0.7"/><polygon points="278.6,183.1 281.4,183.1 281.4,119.5 278.6,119.5" fill="#f59e0b" fill-opacity="0.7"/><polygon points="405.8,183.1 408.7,183.1 408.7,119.5 405.8,119.5" fill="#f59e0b" fill-opacity="0.7"/><polygon points="24.0,52.9 536.0,52.9 536.0,24.0 24.0,24.0" fill="#94a3b8" fill-opacity="0.7"/><polygon points="24.0,359.5 536.0,359.5 536.0,330.6 24.0,330.6" fill="#94a3b8" fill-opacity="0.7"/><polygon points="24.0,359.5 52.9,359.5 52.9,24.0 24.0,24.0" fill="#94a3b8" fill-opacity="0.7"/><polygon points="507.1,359.5 536.0,359.5 536.0,24.0 507.1,24.0" fill="#94a3b8" fill-opacity="0.7"/><polyline points="76.1,238.1 483.9,238.1" fill="none" stroke="#0891b2" stroke-width="11.6"/><polyline points="76.1,157.1 483.9,157.1" fill="none" stroke="#0891b2" stroke-width="11.6"/><polyline points="76.1,76.1 483.9,76.1" fill="none" stroke="#0891b2" stroke-width="11.6"/><polygon points="146.9,264.1 158.5,264.1 158.5,246.7 146.9,246.7" fill="#16a34a" fill-opacity="0.7"/><polyline points="152.7,272.8 152.7,295.9" fill="none" stroke="#7c3aed" stroke-width="5.8"/><polygon points="274.2,264.1 285.8,264.1 285.8,246.7 274.2,246.7" fill="#16a34a" fill-opacity="0.7"/><polyline points="280.0,272.8 280.0,295.9" fill="none" stroke="#7c3aed" stroke-width="5.8"/><polygon points="401.5,264.1 413.1,264.1 413.1,246.7 401.5,246.7" fill="#16a34a" fill-opacity="0.7"/><polyline points="407.3,272.8 407.3,295.9" fill="none" stroke="#7c3aed" stroke-width="5.8"/><polygon points="146.9,183.1 158.5,183.1 158.5,165.7 146.9,165.7" fill="#16a34a" fill-opacity="0.7"/><polyline points="152.7,191.8 152.7,214.9" fill="none" stroke="#7c3aed" stroke-width="5.8"/><polygon points="274.2,183.1 285.8,183.1 285.8,165.7 274.2,165.7" fill="#16a34a" fill-opacity="0.7"/><polyline points="280.0,191.8 280.0,214.9" fill="none" stroke="#7c3aed" stroke-width="5.8"/><polygon points="401.5,183.1 413.1,183.1 413.1,165.7 401.5,165.7" fill="#16a34a" fill-opacity="0.7"/><polyline points="407.3,191.8 407.3,214.9" fill="none" stroke="#7c3aed" stroke-width="5.8"/><polygon points="146.9,102.1 158.5,102.1 158.5,84.7 146.9,84.7" fill="#16a34a" fill-opacity="0.7"/><polyline points="152.7,110.8 152.7,133.9" fill="none" stroke="#7c3aed" stroke-width="5.8"/><polygon points="274.2,102.1 285.8,102.1 285.8,84.7 274.2,84.7" fill="#16a34a" fill-opacity="0.7"/><polyline points="280.0,110.8 280.0,133.9" fill="none" stroke="#7c3aed" stroke-width="5.8"/><polygon points="401.5,102.1 413.1,102.1 413.1,84.7 401.5,84.7" fill="#16a34a" fill-opacity="0.7"/><polyline points="407.3,110.8 407.3,133.9" fill="none" stroke="#7c3aed" stroke-width="5.8"/></svg>